:FULLY-SPECIFIED
:FORCE-ALL-JOINTS-BE-3DOF
:DEGREES
781
root 1.81688 16.2769 18.7299 -12.6843 76.3054 -19.6786
lfemur -42.3218 21.4808 -18.5478
ltibia 52.9207 -0 0
lfoot -23.8689 21.6845 -0.285915
ltoes 25.0479 -0 0
rfemur -13.645 -24.5004 23.6482
rtibia 48.1273 -0 0
rfoot -22.5731 -36.7297 -0.987269
rtoes -23.1804 0 0
lowerback 1.14682 4.59354 -0.919113
upperback -1.05026 6.11234 -3.96147
thorax -1.3722 3.0751 -3.6831
lowerneck -5.26375 -6.61207 -0.905859
upperneck -2.83379 -8.6436 5.55018
head 0.31611 -4.23929 1.70326
lclavicle 1.64792e-013 -2.06736e-014 0
lhumerus -55.297 -11.6352 95.701
lradius 70.7314 -0 0
lwrist 11.9223 0 0
lhand -18.2682 -5.7025 0.0555697
lfingers 7.12502 -0 0
lthumb 8.01149 24.1296 0.0537701
rclavicle 1.64792e-013 -2.06736e-014 0
rhumerus -33.1534 48.6012 -114.326
rradius 77.9861 -0 0
rwrist 6.95008 0 0
rhand -20.85 -20.4069 -0.0445477
rfingers 7.12502 -0 0
rthumb 5.51911 -50.3122 -0.0425657
782
root 1.81332 16.295 18.8311 -8.85631 73.5597 -15.9102
lfemur -42.4325 20.971 -18.2241
ltibia 52.5946 -0 0
lfoot -23.5407 21.0098 -0.343857
ltoes 24.8499 -0 0
rfemur -13.2695 -23.5965 23.6797
rtibia 46.9641 -0 0
rfoot -23.0259 -36.2441 -1.13088
rtoes -23.2721 0 0
lowerback 1.19838 4.57832 -0.724289
upperback -1.00182 6.09508 -3.89546
thorax -1.33728 3.06506 -3.72363
lowerneck -5.2838 -6.46177 -0.814923
upperneck -2.83545 -8.44829 5.43152
head 0.306077 -4.14378 1.65684
lclavicle 1.64792e-013 -2.06736e-014 0
lhumerus -55.2413 -11.5929 95.8151
lradius 70.5546 -0 0
lwrist 12.276 0 0
lhand -18.061 -5.42999 0.0645217
lfingers 7.12502 -0 0
lthumb 8.21151 24.3954 0.0626036
rclavicle 1.64792e-013 -2.06736e-014 0
rhumerus -33.7512 48.4839 -114.97
rradius 77.6044 -0 0
rwrist 6.86258 0 0
rhand -20.6564 -20.6818 -0.0537377
rfingers 7.12502 -0 0
rthumb 5.70601 -50.5817 -0.0513507
783
root 1.80976 16.3131 18.9322 -6.16323 70.7641 -13.2822
lfemur -42.528 20.3839 -17.8625
ltibia 52.2236 -0 0
lfoot -23.1976 20.2579 -0.399531
ltoes 24.6043 -0 0
rfemur -12.8984 -22.6388 23.6921
rtibia 45.8269 -0 0
rfoot -23.4489 -35.6544 -1.25426
rtoes -23.2964 0 0
lowerback 1.25565 4.56623 -0.516479
upperback -0.951089 6.08229 -3.81987
thorax -1.30279 3.05712 -3.76214
lowerneck -5.30776 -6.30397 -0.718054
upperneck -2.83759 -8.24379 5.30309
head 0.295739 -4.04403 1.60645
lclavicle 1.64792e-013 -2.06736e-014 0
lhumerus -55.1819 -11.537 95.8925
lradius 70.3246 -0 0
lwrist 12.6652 0 0
lhand -17.8564 -5.13511 0.0725453
lfingers 7.12502 -0 0
lthumb 8.40892 24.6835 0.0705764
rclavicle 1.64792e-013 -2.06736e-014 0
rhumerus -34.2573 48.3758 -115.551
rradius 77.2313 -0 0
rwrist 6.7499 0 0
rhand -20.4543 -20.9822 -0.0623504
rfingers 7.12502 -0 0
rthumb 5.90111 -50.8766 -0.0595879
784
root 1.80621 16.3313 19.0334 -4.18351 67.9436 -11.3724
lfemur -42.6102 19.7262 -17.4667
ltibia 51.8115 -0 0
lfoot -22.8403 19.4358 -0.451919
ltoes 24.314 -0 0
rfemur -12.5322 -21.6334 23.6868
rtibia 44.7175 -0 0
rfoot -23.842 -34.9686 -1.35703
rtoes -23.2592 0 0
lowerback 1.31785 4.55706 -0.297146
upperback -0.898404 6.07372 -3.73542
thorax -1.26871 3.05118 -3.79848
lowerneck -5.33521 -6.13951 -0.615813
upperneck -2.83971 -8.03123 5.16581
head 0.285299 -3.94058 1.55243
lclavicle 1.64792e-013 -2.06736e-014 0
lhumerus -55.1191 -11.4683 95.9354
lradius 70.0454 -0 0
lwrist 13.0862 0 0
lhand -17.6543 -4.81991 0.0795826
lfingers 7.12502 -0 0
lthumb 8.60407 24.9917 0.0776243
rclavicle 1.64792e-013 -2.06736e-014 0
rhumerus -34.6778 48.2766 -116.07
rradius 76.8662 -0 0
rwrist 6.61427 0 0
rhand -20.2453 -21.3055 -0.0701364
rfingers 7.12502 -0 0
rthumb 6.10289 -51.194 -0.0670397
785
root 1.80265 16.3494 19.1345 -2.67731 65.1141 -9.94046
lfemur -42.6806 19.0047 -17.0406
ltibia 51.3617 -0 0
lfoot -22.47 18.5505 -0.500067
ltoes 23.9824 -0 0
rfemur -12.1716 -20.5867 23.6655
rtibia 43.6376 -0 0
rfoot -24.2046 -34.1946 -1.4391
rtoes -23.1663 0 0
lowerback 1.3842 4.5506 -0.0677519
upperback -0.844088 6.06914 -3.64283
thorax -1.23504 3.04715 -3.83253
lowerneck -5.36577 -5.96928 -0.508757
upperneck -2.84131 -7.81175 5.02061
head 0.274962 -3.83393 1.49513
lclavicle 1.64792e-013 -2.06736e-014 0
lhumerus -55.0536 -11.3877 95.946
lradius 69.7208 -0 0
lwrist 13.535 0 0
lhand -17.4541 -4.48648 0.0855888
lfingers 7.12502 -0 0
lthumb 8.7973 25.3181 0.0836965
rclavicle 1.64792e-013 -2.06736e-014 0
rhumerus -35.0185 48.1857 -116.531
rradius 76.5085 -0 0
rwrist 6.45792 0 0
rhand -20.0309 -21.6487 -0.0768753
rfingers 7.12502 -0 0
rthumb 6.30982 -51.5311 -0.073496
786
root 1.7991 16.3675 19.2357 -1.49966 62.2866 -8.84069
lfemur -42.7409 18.2261 -16.5881
ltibia 50.878 -0 0
lfoot -22.0875 17.6091 -0.543095
ltoes 23.6124 -0 0
rfemur -11.817 -19.5045 23.6293
rtibia 42.5891 -0 0
rfoot -24.5363 -33.3403 -1.50062
rtoes -23.0238 0 0
lowerback 1.45393 4.54668 0.170241
upperback -0.788469 6.0683 -3.54284
thorax -1.20175 3.04493 -3.86415
lowerneck -5.39904 -5.79412 -0.397439
upperneck -2.84186 -7.58647 4.86842
head 0.264936 -3.72462 1.4349
lclavicle 1.64792e-013 -2.06736e-014 0
lhumerus -54.9857 -11.2957 95.9266
lradius 69.3548 -0 0
lwrist 14.0081 0 0
lhand -17.2555 -4.13689 0.0905319
lfingers 7.12502 -0 0
lthumb 8.98896 25.6604 0.0887543
rclavicle 1.64792e-013 -2.06736e-014 0
rhumerus -35.2852 48.1022 -116.935
rradius 76.1577 -0 0
rwrist 6.28308 0 0
rhand -19.8128 -22.0091 -0.0823809
rfingers 7.12502 -0 0
rthumb 6.52035 -51.8852 -0.0787791
787
root 1.79554 16.3857 19.3368 -0.558459 59.4695 -7.98035
lfemur -42.7927 17.3972 -16.1129
ltibia 50.3638 -0 0
lfoot -21.694 16.6186 -0.580212
ltoes 23.2072 -0 0
rfemur -11.4691 -18.3933 23.5796
rtibia 41.5738 -0 0
rfoot -24.8367 -32.4137 -1.54199
rtoes -22.8374 0 0
lowerback 1.52625 4.54511 0.415372
upperback -0.731872 6.07098 -3.43615
thorax -1.16883 3.04444 -3.89321
lowerneck -5.43464 -5.6149 -0.282412
upperneck -2.84086 -7.35655 4.71016
head 0.25543 -3.61316 1.37211
lclavicle 1.64792e-013 -2.06736e-014 0
lhumerus -54.9161 -11.1932 95.8794
lradius 68.9514 -0 0
lwrist 14.5016 0 0
lhand -17.0582 -3.77319 0.094391
lfingers 7.12502 -0 0
lthumb 9.17939 26.0167 0.0927706
rclavicle 1.64792e-013 -2.06736e-014 0
rhumerus -35.4834 48.0252 -117.283
rradius 75.8131 -0 0
rwrist 6.09196 0 0
rhand -19.5926 -22.3836 -0.0865045
rfingers 7.12502 -0 0
rthumb 6.73294 -52.2534 -0.0827468
